<svg xmlns="http://www.w3.org/2000/svg" viewBox="30 30 40 40" class="w-full h-full">
  <defs>
    <linearGradient id="brandGradient" x1="0%" y1="0%" x2="100%" y2="100%">
      <stop offset="0%" style="stop-color:#F7DF1E;stop-opacity:1" />
      <stop offset="100%" style="stop-color:#3178C6;stop-opacity:1" />
    </linearGradient>
  </defs>

  <path
    d="
    M35,35 
    h10 a5,5 0 0 1 5,5 
    v20 a5,5 0 0 1 -5,5 
    h-10 
    v-5 h10 a2.5,2.5 0 0 0 2.5,-2.5 
    v-15 a2.5,2.5 0 0 0 -2.5,-2.5 
    h-10 z 
    
    M65,65 
    h-10 a5,5 0 0 1 -5,-5 
    v-20 a5,5 0 0 1 5,-5 
    h10 
    v5 h-10 a2.5,2.5 0 0 0 -2.5,2.5 
    v15 a2.5,2.5 0 0 0 2.5,2.5 
    h10 z"
    fill="url(#brandGradient)" />
</svg>